<svg height="512pt" viewBox="0 0 512 512" width="512pt" xmlns="http://www.w3.org/2000/svg"><path d="m406.46875 151.542969h-10.273438v-52.929688h-337.003906v154.007813c0 92.910156 75.585938 168.5 168.5 168.5 32.617188 0 64.265625-9.339844 91.523438-27.007813 24-15.554687 43.566406-36.828125 57.011718-61.886719h30.242188c49.8125 0 90.339844-40.527343 90.339844-90.339843 0-49.816407-40.527344-90.34375-90.339844-90.34375zm-1.015625 114.515625h-29.597656v-48.34375h29.597656c13.328125 0 24.175781 10.84375 24.175781 24.171875-.003906 13.328125-10.847656 24.171875-24.175781 24.171875zm0 0" fill="#22b8f9"/><path d="m220.0625 78.34375h-28.050781c0-3.992188-1.226563-5.453125-5.472657-9.898438-5.269531-5.519531-13.230468-13.859374-13.230468-29.273437s7.960937-23.753906 13.230468-29.273437c4.246094-4.445313 5.472657-5.902344 5.472657-9.898438h28.050781c0 15.414062-7.964844 23.753906-13.234375 29.273438-4.242187 4.445312-5.46875 5.90625-5.46875 9.898437s1.226563 5.453125 5.46875 9.898437c5.269531 5.519532 13.234375 13.859376 13.234375 29.273438zm0 0" fill="#ffda2d"/><path d="m276.171875 78.34375h-28.054687c0-3.992188-1.222657-5.453125-5.46875-9.898438-5.269532-5.519531-13.230469-13.859374-13.230469-29.273437s7.960937-23.753906 13.230469-29.273437c4.246093-4.445313 5.46875-5.902344 5.46875-9.898438h28.054687c0 15.414062-7.964844 23.753906-13.234375 29.273438-4.242188 4.445312-5.46875 5.90625-5.46875 9.898437s1.226562 5.453125 5.46875 9.898437c5.269531 5.519532 13.234375 13.859376 13.234375 29.273438zm0 0" fill="#ffda2d"/><path d="m276.171875 78.34375h-28.054687c0-3.992188-1.222657-5.453125-5.46875-9.898438-5.269532-5.519531-13.230469-13.859374-13.230469-29.273437s7.960937-23.753906 13.230469-29.273437c4.246093-4.445313 5.46875-5.902344 5.46875-9.898438h28.054687c0 15.414062-7.964844 23.753906-13.234375 29.273438-4.242188 4.445312-5.46875 5.90625-5.46875 9.898437s1.226562 5.453125 5.46875 9.898437c5.269531 5.519532 13.234375 13.859376 13.234375 29.273438zm0 0" fill="#fd982c"/><path d="m0 421.121094v15c0 41.359375 33.644531 75.003906 75.003906 75.003906h361.992188c41.355468 0 75.003906-33.644531 75.003906-75.003906v-15zm0 0" fill="#e8398b"/><path d="m406.46875 151.542969h-10.273438v-52.929688h-168.503906v322.507813c32.617188 0 64.265625-9.339844 91.523438-27.007813 24-15.554687 43.566406-36.828125 57.011718-61.886719h30.242188c49.8125 0 90.339844-40.527343 90.339844-90.339843 0-49.816407-40.527344-90.34375-90.339844-90.34375zm-1.015625 114.515625h-29.597656v-48.34375h29.597656c13.328125 0 24.175781 10.84375 24.175781 24.171875-.003906 13.328125-10.847656 24.171875-24.175781 24.171875zm0 0" fill="#1272fb"/><path d="m227.691406 421.121094v90.003906h209.304688c41.355468 0 75.003906-33.644531 75.003906-75.003906v-15zm0 0" fill="#ad2b68"/><path d="m59.191406 123.371094h337.003906v28.054687h-337.003906zm0 0" fill="#e8398b"/><path d="m227.691406 123.371094h168.503906v28.054687h-168.503906zm0 0" fill="#ad2b68"/></svg>