<?xml version="1.0" encoding="iso-8859-1"?>
<!-- Generator: Adobe Illustrator 19.0.0, SVG Export Plug-In . SVG Version: 6.00 Build 0)  -->
<svg xmlns="http://www.w3.org/2000/svg" xmlns:xlink="http://www.w3.org/1999/xlink" version="1.1" id="Layer_1" x="0px" y="0px" viewBox="0 0 512 512" style="enable-background:new 0 0 512 512;" xml:space="preserve" width="512" height="512">
<g>
	<path style="fill:#FF9100;" d="M510.867,387.491l-81.67,18.455c-1.523-2.721-124.308-222.122-116.462-208.101l-180.1-120.28   l22.698-77.427l11.667,0.211c93.55,2.759,178.402,41.791,240.557,102.674c70.674,68.806,109.332,160.168,103.945,273.226   L510.867,387.491z"/>
	<path style="fill:#FF641A;" d="M510.867,387.491l-81.67,18.455c-1.523-2.721-124.308-222.122-116.462-208.101l94.822-94.822   c70.674,68.806,109.332,160.168,103.945,273.226L510.867,387.491z"/>
	<path style="fill:#FDBF00;" d="M429.197,405.947l-98.219,22.274l-14.848-8.061c-0.001-24.607-20.154-44.76-44.76-44.76   c-24.608,0-44.761,20.153-44.972,44.972c-0.001,6.364,1.696,12.303,4.242,17.818l-9.122,14.637l-56.639,12.941l-68.943-51.125   l-0.637-0.637l-40.941-65.971l20.364-70.005l15.699-5.514c8.061,8.061,18.88,12.94,31.183,12.94   c24.82-0.212,44.761-20.153,44.972-44.972c0-25.033-20.152-45.184-44.972-44.972c-3.394-0.001-6.576,0.211-9.546,1.06l-9.97-12.515   l30.759-106.704c11.242-1.06,22.274-1.907,33.728-1.908c73.822,0,141.281,30.124,190.071,78.489   c49.427,49.002,79.974,116.885,79.974,191.556C436.409,366.066,433.863,386.43,429.197,405.947z"/>
	<path style="fill:#FF9100;" d="M429.197,405.947l-98.219,22.274l-14.848-8.061c-0.001-24.607-20.154-44.76-44.76-44.76   c-24.608,0-44.761,20.153-44.972,44.972c-0.001,6.364,1.696,12.303,4.242,17.818l-9.122,14.637l-56.639,12.941l-68.943-51.125   l260.71-260.71c49.427,49.002,79.974,116.885,79.974,191.556C436.409,366.066,433.863,386.43,429.197,405.947z"/>
	<path style="fill:#AE2538;" d="M330.896,428.21c-3.005,0.677-112.204,25.277-109.199,24.598   c-6.901-9.899-10.201-20.698-10.201-32.399c0-33.001,27.001-60,60-60c18.3,0,35.4,8.399,46.8,22.8   C328.497,396.11,332.696,412.009,330.896,428.21z"/>
	<rect x="211.497" y="300.41" style="fill:#FF641A;" width="30" height="30"/>
	<polygon style="fill:#7FE881;" points="271.582,270.394 241.458,270.394 241.459,269.121 241.459,240.272 270.097,240.484    271.37,240.483  "/>
	<polygon style="fill:#5BC980;" points="271.582,270.394 241.458,270.394 241.459,269.121 270.097,240.484 271.37,240.483  "/>
	<path style="fill:#FF9100;" d="M165.092,465.556L0,511.862l54.359-163.827c27.578,4.666,52.396,18.031,71.488,36.698   C147.273,405.734,161.485,433.948,165.092,465.556z"/>
	<path style="fill:#FF641A;" d="M165.092,465.556L0,511.862l125.847-127.128C147.273,405.734,161.485,433.948,165.092,465.556z"/>
	<path style="fill:#E63950;" d="M226.497,120.41c-24.901,0-45,20.099-45,45c0,24.899,20.099,45,45,45c24.901,0,45-20.101,45-45   C271.497,140.509,251.397,120.41,226.497,120.41z"/>
	<path style="fill:#FF641A;" d="M346.497,330.41c-24.814,0-45-20.186-45-45s20.186-45,45-45c24.814,0,45,20.186,45,45   S371.311,330.41,346.497,330.41z"/>
	<path style="fill:#FF9100;" d="M181.497,240.41c0,32.999-27.001,60-60,60c-18.3,0-35.4-8.401-46.8-22.5   c0.881-3.032,28.18-96.933,27.299-93.9c6.301-2.401,12.902-3.6,19.501-3.6C154.496,180.41,181.497,207.409,181.497,240.41z"/>
</g>















</svg>
