<?xml version="1.0" standalone="no"?>
<!DOCTYPE svg PUBLIC "-//W3C//DTD SVG 20010904//EN"
 "http://www.w3.org/TR/2001/REC-SVG-20010904/DTD/svg10.dtd">
<svg version="1.0" xmlns="http://www.w3.org/2000/svg"
 width="225.000000pt" height="225.000000pt" viewBox="0 0 225.000000 225.000000"
 preserveAspectRatio="xMidYMid meet">
<metadata>
Created by potrace 1.15, written by Peter Selinger 2001-2017
</metadata>
<g transform="translate(0.000000,225.000000) scale(0.100000,-0.100000)"
fill="#000000" stroke="none">
<path d="M1005 2179 c-429 -47 -794 -364 -907 -786 -26 -100 -36 -331 -18
-440 36 -227 148 -435 321 -598 90 -85 161 -133 282 -190 140 -66 226 -86 403
-92 161 -6 251 6 379 49 284 94 532 330 646 613 71 178 91 420 51 610 -114
533 -615 894 -1157 834z m421 -614 c65 -56 176 -174 209 -221 13 -20 13 -24
-4 -46 -26 -33 -709 -583 -724 -583 -7 0 -24 -16 -38 -36 -32 -42 -99 -74
-190 -88 -98 -16 -93 -20 -85 55 9 90 40 167 82 203 19 17 40 31 46 31 9 0 9
3 0 12 -9 9 -6 19 16 43 16 16 78 91 138 165 435 540 442 548 470 532 7 -4 43
-34 80 -67z"/>
<path d="M1219 1387 c-92 -62 -68 -196 41 -228 72 -22 160 45 160 120 0 102
-117 165 -201 108z m140 -23 c90 -76 12 -218 -101 -184 -46 13 -78 58 -78 109
0 24 9 42 34 67 44 44 99 47 145 8z"/>
<path d="M860 913 c-102 -76 -188 -213 -135 -213 64 0 245 179 245 242 0 32
-45 20 -110 -29z"/>
</g>
</svg>
