<?xml version="1.0" standalone="no"?>
<!DOCTYPE svg PUBLIC "-//W3C//DTD SVG 20010904//EN"
 "http://www.w3.org/TR/2001/REC-SVG-20010904/DTD/svg10.dtd">
<svg version="1.0" xmlns="http://www.w3.org/2000/svg"
 width="640.000000pt" height="640.000000pt" viewBox="0 0 640.000000 640.000000"
 preserveAspectRatio="xMidYMid meet">
<metadata>
Created by potrace 1.15, written by Peter Selinger 2001-2017
</metadata>
<g transform="translate(0.000000,640.000000) scale(0.100000,-0.100000)"
fill="#000000" stroke="none">
<path d="M3009 6060 c-384 -30 -722 -122 -1064 -290 -271 -133 -444 -249 -665
-445 -255 -227 -470 -509 -634 -835 -214 -422 -309 -821 -309 -1295 0 -777
292 -1485 838 -2030 231 -232 465 -400 750 -540 393 -193 758 -285 1190 -302
657 -24 1312 189 1860 606 118 90 373 341 469 461 173 217 360 547 451 793
126 345 179 643 179 1012 -1 307 -30 518 -110 798 -316 1102 -1266 1910 -2409
2051 -155 19 -412 27 -546 16z m716 -1477 c-3 -16 -144 -651 -314 -1413 l-308
-1385 -210 -3 -211 -2 8 37 c69 314 613 2763 616 2776 5 15 24 17 215 17 l211
0 -7 -27z m-1465 -988 c-214 -215 -390 -395 -390 -400 0 -5 177 -187 392 -402
l393 -393 -153 -152 -152 -153 -545 545 c-300 300 -545 549 -545 555 0 5 244
254 542 552 l543 543 152 -152 153 -153 -390 -390z m2350 -950 l-550 -550
-152 153 -153 152 398 398 397 397 -395 395 -395 395 152 152 153 153 547
-547 548 -548 -550 -550z"/>
</g>
</svg>
